<svg width="38" height="38" xmlns="http://www.w3.org/2000/svg"><path d="M19 38C8.507 38 0 29.493 0 19S8.507 0 19 0s19 8.507 19 19-8.507 19-19 19zm-4.28-12.488c-.6.57-1.618.561-2.205-.027a1.567 1.567 0 01-.463-1.116c0-.41.155-.794.436-1.088l5.408-3.93-.62-.851-5.443 3.955-.062.053a2.615 2.615 0 00-.771 1.86c0 .704.274 1.364.77 1.862.498.496 1.159.77 1.86.77a2.61 2.61 0 001.86-.771l4.01-5.506-.852-.619-3.929 5.408zm6.071-4.887l.834-.849-2.353-2.338-.834.847 2.353 2.34zm-7.666 4.25h1.063v-1.063h-1.063v1.063zm14.078-8.5l.797-.797-1.992-1.992-1.196 1.195c-.212.213-.495.33-.796.33-.302 0-.585-.117-.797-.33a1.123 1.123 0 010-1.594l1.195-1.195L22.422 10l-.797.797 1.196 1.195-.399.398a2.24 2.24 0 00-.66 1.595c0 .601.235 1.168.66 1.593.425.426.991.66 1.593.66.603 0 1.169-.234 1.594-.66l.399-.398 1.195 1.195zm-1.252 1.018l.986-.987-.763-.763-.987.986a2.68 2.68 0 01-1.908.791 2.68 2.68 0 01-1.908-.79 2.681 2.681 0 01-.791-1.908c0-.722.28-1.4.79-1.91l.987-.987-.763-.762-.987.986a3.754 3.754 0 00-1.107 2.673c0 1.009.393 1.957 1.107 2.671A3.756 3.756 0 0023.28 18.5c1.01 0 1.958-.393 2.672-1.107zm1.215 8.786a2.775 2.775 0 00-.004-3.97L23.54 18.5l-.807.794L26.354 23c.67.66.672 1.728.004 2.384a1.737 1.737 0 01-2.42.004l-3.63-3.715-.808.793 3.63 3.715a2.866 2.866 0 002.014.818 2.88 2.88 0 002.022-.821zm-2.132-1.304l.841-.81-3.41-3.44-.84.81 3.41 3.44zm-8.424-8.5l.765-.81-3.485-3.44-.765.812 3.485 3.438zm-2.605-4.25a.621.621 0 11-.88.88l.88-.88zm.672 1.554c.37-.368.572-.858.573-1.379 0-.521-.204-1.012-.573-1.38l-.92-.92L11 12.759l.92.92c.367.368.858.571 1.379.571s1.01-.203 1.378-.571z" fill="#0094E6" fill-rule="evenodd"/></svg>